{"title":"Game.of.Thrones.S05E07.720p.HDTV.x264-IMMERSE[rarbg]","uid":11962207,"size":1186661164,"categoryP":"video","categoryS":"hd___tv_shows","magnet":"?xt=urn:btih:b419858ac2f83207e7b5e9c7310a4f333e0192df&amp;dn=Game.of.Thrones.S05E07.720p.HDTV.x264-IMMERSE%5Brarbg%5D&amp;tr=udp%3A%2F%2Ftracker.openbittorrent.com%3A80&amp;tr=udp%3A%2F%2Fopen.demonii.com%3A1337&amp;tr=udp%3A%2F%2Ftracker.coppersurfer.tk%3A6969&amp;tr=udp%3A%2F%2Fexodus.desync.com%3A6969","seeders":36,"leechers":1,"uploader":"vickey1992","files":3,"time":1432582155,"description":"Game of Thrones\n\nEpisode.......: S05E07\nRelease Date..: 2015-05-24\nRelease Size..: 1131.69Mb\nPlay Time.....: 60:30\nResolution....: 1280x720\nVideo bitrate.: 2229kbps\nAudio info....: 6ch, 384kbps\nSubtitles.....: English\n\nVideo\nID                                       : 1\nFormat                                   : AVC\nFormat/Info                              : Advanced Video Codec\nFormat profile                           : &lt;a class=&quot;__cf_email__&quot; href=&quot;/cdn-cgi/l/email-protection&quot; data-cfemail=&quot;044c6d636c4448302a35&quot;&gt;[email&amp;#160;protected]&lt;/a&gt;&lt;script data-cfhash='f9e31' type=&quot;text/javascript&quot;&gt;\n/* &lt;![CDATA[ */!function(){try{var t=&quot;currentScript&quot;in document?document.currentScript:function(){for(var t=document.getElementsByTagName(&quot;script&quot;),e=t.length;e--;)if(t[e].getAttribute(&quot;data-cfhash&quot;))return t[e]}();if(t&amp;&amp;t.previousSibling){var e,r,n,i,c=t.previousSibling,a=c.getAttribute(&quot;data-cfemail&quot;);if(a){for(e=&quot;&quot;,r=parseInt(a.substr(0,2),16),n=2;a.length-n;n+=2)i=parseInt(a.substr(n,2),16)^r,e+=String.fromCharCode(i);e=document.createTextNode(e),c.parentNode.replaceChild(e,c)}t.parentNode.removeChild(t);}}catch(u){}}()/* ]]&gt; */&lt;/script&gt;\nFormat settings, CABAC                   : Yes\nFormat settings, ReFrames                : 5 frames\nCodec ID                                 : V_MPEG4/ISO/AVC\nDuration                                 : 1h 0mn\nBit rate                                 : 2 179 Kbps\nWidth                                    : 1 280 pixels\nHeight                                   : 720 pixels\nDisplay aspect ratio                     : 16:9\nFrame rate mode                          : Constant\nFrame rate                               : 23.976 fps\nColor space                              : YUV\nChroma subsampling                       : 4:2:0\nBit depth                                : 8 bits\nScan type                                : Progressive\nBits/(Pixel*Frame)                       : 0.099\nStream size                              : 943 MiB (83%)\nWriting library                          : x264 core 146 r2538 121396c\nEncoding settings                        : cabac=1 / ref=5 / deblock=1:-2:-2 / analyse=0x3:0x113 / me=umh / subme=8 / psy=1 / psy_rd=1.05:0.00 / mixed_ref=1 / me_range=16 / chroma_me=1 / trellis=1 / 8x8dct=1 / cqm=0 / deadzone=21,11 / fast_pskip=1 / chroma_qp_offset=-2 / threads=18 / lookahead_threads=3 / sliced_threads=0 / nr=0 / decimate=1 / interlaced=0 / bluray_compat=0 / constrained_intra=0 / bframes=3 / b_pyramid=2 / b_adapt=2 / b_bias=0 / direct=3 / weightb=1 / open_gop=0 / weightp=2 / keyint=250 / keyint_min=23 / scenecut=40 / intra_refresh=0 / rc_lookahead=50 / rc=crf / mbtree=1 / crf=18.0 / qcomp=0.70 / qpmin=0 / qpmax=69 / qpstep=4 / ip_ratio=1.40 / aq=1:0.70\nLanguage                                 : English\nDefault                                  : Yes\nForced                                   : No\n\nAudio\nID                                       : 2\nFormat                                   : AC-3\nFormat/Info                              : Audio Coding 3\nMode extension                           : CM (complete main)\nFormat settings, Endianness              : Big\nCodec ID                                 : A_AC3\nDuration                                 : 1h 0mn\nBit rate mode                            : Constant\nBit rate                                 : 384 Kbps\nChannel(s)                               : 6 channels\nChannel(s)_Original                      : 2 channels\nChannel positions                        : Front: L R\nSampling rate                            : 48.0 KHz\nBit depth                                : 16 bits\nCompression mode                         : Lossy\nStream size                              : 166 MiB (15%)\nLanguage                                 : English\nDefault                                  : Yes\nForced                                   : No\n\nText\nID                                       : 3\nFormat                                   : UTF-8\nCodec ID                                 : S_TEXT/UTF8\nCodec ID/Info                            : UTF-8 Plain Text\nTitle                                    : English\nLanguage                                 : English\nDefault                                  : Yes\nForced                                   : No","torrent":{"xt":"urn:btih:b419858ac2f83207e7b5e9c7310a4f333e0192df","amp;dn":"Game.of.Thrones.S05E07.720p.HDTV.x264-IMMERSE%5Brarbg%5D","amp;tr":["udp%3A%2F%2Ftracker.openbittorrent.com%3A80","udp%3A%2F%2Fopen.demonii.com%3A1337","udp%3A%2F%2Ftracker.coppersurfer.tk%3A6969","udp%3A%2F%2Fexodus.desync.com%3A6969"],"infoHash":"b419858ac2f83207e7b5e9c7310a4f333e0192df","infoHashBuffer":{"type":"Buffer","data":[180,25,133,138,194,248,50,7,231,181,233,199,49,10,79,51,62,1,146,223]},"announce":[],"urlList":[]}}